<svg xmlns="http://www.w3.org/2000/svg" x="0px" y="0px"
width="100" height="100"
viewBox="0 0 172 172"
style=" fill:#000000;"><g transform="translate(9.03,9.03) scale(0.895,0.895)"><g fill="none" fill-rule="nonzero" stroke="none" stroke-width="none" stroke-linecap="butt" stroke-linejoin="none" stroke-miterlimit="10" stroke-dasharray="" stroke-dashoffset="0" font-family="none" font-weight="none" font-size="none" text-anchor="none" style="mix-blend-mode: normal"><g fill="#000000" stroke="#cccccc" stroke-width="18" stroke-linejoin="round"><path d="M135.5575,5.6975c6.45,1.77375 11.73094,3.88344 15.695,6.45c3.96406,2.56656 6.9875,5.9125 6.9875,10.2125v70.1975c0,8.90906 -3.82969,17.40156 -10.4275,23.22l-27.4125,23.9725v6.45c0.01344,0.17469 0.01344,0.36281 0,0.5375c0,0.06719 -0.1075,0.14781 -0.1075,0.215c0,0.06719 0,0.14781 0,0.215c-0.33594,7.06813 -4.32687,13.28969 -10.32,17.63c-6.26187,4.52844 -14.71406,7.2025 -23.9725,7.2025c-9.25844,0 -17.71062,-2.67406 -23.9725,-7.2025c-5.99312,-4.34031 -9.98406,-10.56187 -10.32,-17.63c-0.08062,-0.30906 -0.12094,-0.645 -0.1075,-0.9675v-6.45l-27.4125,-23.9725c-6.59781,-5.81844 -10.4275,-14.31094 -10.4275,-23.22v-70.1975c0,-4.3 3.02344,-7.64594 6.9875,-10.2125c3.96406,-2.56656 9.245,-4.67625 15.695,-6.45c12.9,-3.56094 30.38219,-5.6975 49.5575,-5.6975c19.17531,0 36.6575,2.13656 49.5575,5.6975zM38.3775,12.3625c-6.02,1.66625 -10.84406,3.64156 -13.8675,5.59c-3.02344,1.94844 -3.87,3.5475 -3.87,4.4075v70.1975c0,6.92031 3.07719,13.55844 8.17,18.06l22.8975,20.1025c0.57781,-6.75906 4.52844,-12.69844 10.32,-16.8775c6.26188,-4.52844 14.71406,-7.2025 23.9725,-7.2025c9.25844,0 17.71063,2.67406 23.9725,7.2025c5.79156,4.17906 9.74219,10.11844 10.32,16.8775l22.8975,-20.1025c5.09281,-4.50156 8.17,-11.13969 8.17,-18.06v-70.1975c0,-0.86 -0.84656,-2.45906 -3.87,-4.4075c-3.02344,-1.94844 -7.8475,-3.92375 -13.8675,-5.59c-12.04,-3.31906 -28.95781,-5.4825 -47.6225,-5.4825c-18.66469,0 -35.5825,2.16344 -47.6225,5.4825zM123.625,33.2175c4.89125,1.69313 8.90906,3.61469 11.9325,5.805c3.02344,2.19031 5.4825,4.85094 5.4825,8.4925v25.37c0,9.08375 -7.47125,16.555 -16.555,16.555h-8.6c-3.31906,0 -6.61125,-0.77937 -9.5675,-2.4725c-0.14781,-0.09406 -0.29562,-0.20156 -0.43,-0.3225l-13.975,-10.965c-0.02687,-0.02687 -0.08062,0.02688 -0.1075,0c-3.62812,-2.53969 -7.98187,-2.53969 -11.61,0c-0.02687,0.02688 -0.08062,-0.02687 -0.1075,0l-13.975,10.965c-0.13437,0.12094 -0.28219,0.22844 -0.43,0.3225c-2.95625,1.69313 -6.24844,2.4725 -9.5675,2.4725h-8.6c-9.08375,0 -16.555,-7.47125 -16.555,-16.555v-25.8c0,-3.64156 2.45906,-6.04687 5.4825,-8.17c3.02344,-2.12312 7.05469,-4.03125 11.9325,-5.6975c9.76906,-3.3325 22.97813,-5.6975 37.625,-5.6975c14.64688,0 27.85594,2.32469 37.625,5.6975zM50.6325,39.6675c-4.44781,1.51844 -8.02219,3.29219 -10.2125,4.8375c-2.19031,1.54531 -2.58,2.78156 -2.58,2.58v25.8c0,5.36156 4.31344,9.675 9.675,9.675h8.6c2.17688,0 4.27313,-0.55094 6.1275,-1.6125l13.76,-10.75c0.04031,-0.04031 0.06719,-0.06719 0.1075,-0.1075c5.95281,-4.24625 13.82719,-4.24625 19.78,0c0.04031,0.04031 0.06719,0.06719 0.1075,0.1075l13.76,10.75c1.85438,1.06156 3.95063,1.6125 6.1275,1.6125h8.6c5.36156,0 9.675,-4.31344 9.675,-9.675v-25.37c0,0.02688 -0.38969,-1.31687 -2.58,-2.9025c-2.19031,-1.58562 -5.76469,-3.30562 -10.2125,-4.8375c-8.88219,-3.07719 -21.45969,-5.375 -35.3675,-5.375c-13.90781,0 -26.47187,2.23063 -35.3675,5.2675zM66.1125,119.4325c-4.25969,3.07719 -6.90687,6.89344 -7.525,11.0725c1.04813,-1.03469 2.21719,-2.01562 3.44,-2.9025c6.26188,-4.52844 14.71406,-7.2025 23.9725,-7.2025c9.25844,0 17.71063,2.67406 23.9725,7.2025c1.22281,0.88688 2.39188,1.86781 3.44,2.9025c-0.61812,-4.17906 -3.26531,-7.99531 -7.525,-11.0725c-4.91812,-3.5475 -11.94594,-5.9125 -19.8875,-5.9125c-7.94156,0 -14.96937,2.365 -19.8875,5.9125zM66.1125,133.1925c-4.91812,3.5475 -7.6325,8.08938 -7.6325,13.0075c0.01344,0.17469 0.01344,0.36281 0,0.5375c0.18813,4.71656 2.9025,9.04344 7.6325,12.47c4.91813,3.5475 11.94594,5.9125 19.8875,5.9125c7.94156,0 14.96938,-2.365 19.8875,-5.9125c4.81063,-3.48031 7.51156,-7.88781 7.6325,-12.685c0,-0.1075 0,-0.215 0,-0.3225c0,-4.91812 -2.71437,-9.46 -7.6325,-13.0075c-4.91812,-3.5475 -11.94594,-5.9125 -19.8875,-5.9125c-7.94156,0 -14.96937,2.365 -19.8875,5.9125zM102.555,135.02c4.32688,2.66063 7.525,6.50375 7.525,11.18c0,4.67625 -3.19812,8.51938 -7.525,11.18c-4.32687,2.66063 -10.105,4.3 -16.555,4.3c-6.45,0 -12.22812,-1.63937 -16.555,-4.3c-4.32687,-2.66062 -7.525,-6.50375 -7.525,-11.18c0,-4.67625 3.19813,-8.51937 7.525,-11.18c4.32688,-2.66062 10.105,-4.3 16.555,-4.3c6.45,0 12.22813,1.63938 16.555,4.3zM73.1,140.9325c-3.07719,1.89469 -4.3,4.09844 -4.3,5.2675c0,1.16906 1.22281,3.37281 4.3,5.2675c3.07719,1.89469 7.65938,3.3325 12.9,3.3325c5.24063,0 9.82281,-1.43781 12.9,-3.3325c3.07719,-1.89469 4.3,-4.09844 4.3,-5.2675c0,-1.16906 -1.22281,-3.37281 -4.3,-5.2675c-3.07719,-1.89469 -7.65937,-3.3325 -12.9,-3.3325c-5.24062,0 -9.82281,1.43781 -12.9,3.3325z"></path></g><path d="M0,172v-172h172v172z" fill="none" stroke="none" stroke-width="1" stroke-linejoin="miter"></path><g fill="#000000" stroke="none" stroke-width="1" stroke-linejoin="miter"><path d="M86,0c-19.17531,0 -36.6575,2.13656 -49.5575,5.6975c-6.45,1.77375 -11.73094,3.88344 -15.695,6.45c-3.96406,2.56656 -6.9875,5.9125 -6.9875,10.2125v70.1975c0,8.90906 3.82969,17.40156 10.4275,23.22l27.4125,23.9725v6.45c-0.01344,0.3225 0.02688,0.65844 0.1075,0.9675c0.33594,7.06813 4.32688,13.28969 10.32,17.63c6.26188,4.52844 14.71406,7.2025 23.9725,7.2025c9.25844,0 17.71063,-2.67406 23.9725,-7.2025c5.99313,-4.34031 9.98406,-10.56187 10.32,-17.63c0,-0.06719 0,-0.14781 0,-0.215c0,-0.06719 0.1075,-0.14781 0.1075,-0.215c0.01344,-0.17469 0.01344,-0.36281 0,-0.5375v-6.45l27.4125,-23.9725c6.59781,-5.81844 10.4275,-14.31094 10.4275,-23.22v-70.1975c0,-4.3 -3.02344,-7.64594 -6.9875,-10.2125c-3.96406,-2.56656 -9.245,-4.67625 -15.695,-6.45c-12.9,-3.56094 -30.38219,-5.6975 -49.5575,-5.6975zM86,6.88c18.66469,0 35.5825,2.16344 47.6225,5.4825c6.02,1.66625 10.84406,3.64156 13.8675,5.59c3.02344,1.94844 3.87,3.5475 3.87,4.4075v70.1975c0,6.92031 -3.07719,13.55844 -8.17,18.06l-22.8975,20.1025c-0.57781,-6.75906 -4.52844,-12.69844 -10.32,-16.8775c-6.26187,-4.52844 -14.71406,-7.2025 -23.9725,-7.2025c-9.25844,0 -17.71062,2.67406 -23.9725,7.2025c-5.79156,4.17906 -9.74219,10.11844 -10.32,16.8775l-22.8975,-20.1025c-5.09281,-4.50156 -8.17,-11.13969 -8.17,-18.06v-70.1975c0,-0.86 0.84656,-2.45906 3.87,-4.4075c3.02344,-1.94844 7.8475,-3.92375 13.8675,-5.59c12.04,-3.31906 28.95781,-5.4825 47.6225,-5.4825zM86,27.52c-14.64687,0 -27.85594,2.365 -37.625,5.6975c-4.87781,1.66625 -8.90906,3.57438 -11.9325,5.6975c-3.02344,2.12313 -5.4825,4.52844 -5.4825,8.17v25.8c0,9.08375 7.47125,16.555 16.555,16.555h8.6c3.31906,0 6.61125,-0.77937 9.5675,-2.4725c0.14781,-0.09406 0.29563,-0.20156 0.43,-0.3225l13.975,-10.965c0.02688,-0.02687 0.08063,0.02688 0.1075,0c3.62813,-2.53969 7.98188,-2.53969 11.61,0c0.02688,0.02688 0.08063,-0.02687 0.1075,0l13.975,10.965c0.13438,0.12094 0.28219,0.22844 0.43,0.3225c2.95625,1.69313 6.24844,2.4725 9.5675,2.4725h8.6c9.08375,0 16.555,-7.47125 16.555,-16.555v-25.37c0,-3.64156 -2.45906,-6.30219 -5.4825,-8.4925c-3.02344,-2.19031 -7.04125,-4.11187 -11.9325,-5.805c-9.76906,-3.37281 -22.97812,-5.6975 -37.625,-5.6975zM86,34.4c13.90781,0 26.48531,2.29781 35.3675,5.375c4.44781,1.53188 8.02219,3.25188 10.2125,4.8375c2.19031,1.58563 2.58,2.92938 2.58,2.9025v25.37c0,5.36156 -4.31344,9.675 -9.675,9.675h-8.6c-2.17687,0 -4.27312,-0.55094 -6.1275,-1.6125l-13.76,-10.75c-0.04031,-0.04031 -0.06719,-0.06719 -0.1075,-0.1075c-5.95281,-4.24625 -13.82719,-4.24625 -19.78,0c-0.04031,0.04031 -0.06719,0.06719 -0.1075,0.1075l-13.76,10.75c-1.85437,1.06156 -3.95062,1.6125 -6.1275,1.6125h-8.6c-5.36156,0 -9.675,-4.31344 -9.675,-9.675v-25.8c0,0.20156 0.38969,-1.03469 2.58,-2.58c2.19031,-1.54531 5.76469,-3.31906 10.2125,-4.8375c8.89563,-3.03687 21.45969,-5.2675 35.3675,-5.2675zM86,113.52c7.94156,0 14.96938,2.365 19.8875,5.9125c4.25969,3.07719 6.90688,6.89344 7.525,11.0725c-1.04812,-1.03469 -2.21719,-2.01562 -3.44,-2.9025c-6.26187,-4.52844 -14.71406,-7.2025 -23.9725,-7.2025c-9.25844,0 -17.71062,2.67406 -23.9725,7.2025c-1.22281,0.88688 -2.39187,1.86781 -3.44,2.9025c0.61813,-4.17906 3.26531,-7.99531 7.525,-11.0725c4.91813,-3.5475 11.94594,-5.9125 19.8875,-5.9125zM86,127.28c7.94156,0 14.96938,2.365 19.8875,5.9125c4.91813,3.5475 7.6325,8.08938 7.6325,13.0075c0,0.1075 0,0.215 0,0.3225c-0.12094,4.79719 -2.82187,9.20469 -7.6325,12.685c-4.91812,3.5475 -11.94594,5.9125 -19.8875,5.9125c-7.94156,0 -14.96937,-2.365 -19.8875,-5.9125c-4.73,-3.42656 -7.44437,-7.75344 -7.6325,-12.47c0.01344,-0.17469 0.01344,-0.36281 0,-0.5375c0,-4.91812 2.71438,-9.46 7.6325,-13.0075c4.91813,-3.5475 11.94594,-5.9125 19.8875,-5.9125zM86,130.72c-6.45,0 -12.22812,1.63938 -16.555,4.3c-4.32687,2.66063 -7.525,6.50375 -7.525,11.18c0,4.67625 3.19813,8.51938 7.525,11.18c4.32688,2.66063 10.105,4.3 16.555,4.3c6.45,0 12.22813,-1.63937 16.555,-4.3c4.32688,-2.66062 7.525,-6.50375 7.525,-11.18c0,-4.67625 -3.19812,-8.51937 -7.525,-11.18c-4.32687,-2.66062 -10.105,-4.3 -16.555,-4.3zM86,137.6c5.24063,0 9.82281,1.43781 12.9,3.3325c3.07719,1.89469 4.3,4.09844 4.3,5.2675c0,1.16906 -1.22281,3.37281 -4.3,5.2675c-3.07719,1.89469 -7.65937,3.3325 -12.9,3.3325c-5.24062,0 -9.82281,-1.43781 -12.9,-3.3325c-3.07719,-1.89469 -4.3,-4.09844 -4.3,-5.2675c0,-1.16906 1.22281,-3.37281 4.3,-5.2675c3.07719,-1.89469 7.65938,-3.3325 12.9,-3.3325z"></path></g><path d="M86,172c-47.49649,0 -86,-38.50351 -86,-86v0c0,-47.49649 38.50351,-86 86,-86v0c47.49649,0 86,38.50351 86,86v0c0,47.49649 -38.50351,86 -86,86z" fill="none" stroke="none" stroke-width="1" stroke-linejoin="miter"></path><path d="M86,168.56c-45.59663,0 -82.56,-36.96337 -82.56,-82.56v0c0,-45.59663 36.96337,-82.56 82.56,-82.56v0c45.59663,0 82.56,36.96337 82.56,82.56v0c0,45.59663 -36.96337,82.56 -82.56,82.56z" fill="none" stroke="none" stroke-width="1" stroke-linejoin="miter"></path><path d="" fill="none" stroke="none" stroke-width="1" stroke-linejoin="miter"></path><path d="" fill="none" stroke="none" stroke-width="1" stroke-linejoin="miter"></path><path d="" fill="none" stroke="none" stroke-width="1" stroke-linejoin="miter"></path></g></g></svg>